<svg version="1.1" viewBox="0 0 43 28" xmlns:xlink="http://www.w3.org/1999/xlink" xmlns="http://www.w3.org/2000/svg">
  <g class="icon-solid" fill="#000000" fill-rule="nonzero" stroke="none" stroke-width="1" transform="translate(216.589355, 127.568359)">
    <path d="M30.8115234,0 C31.5097656,0 32.0874023,0.165039062 32.5444336,0.495117188 C32.9506836,0.788519965 33.2716712,1.21232398 33.5073966,1.76652922 L33.5917969,1.98046875 L41.7802734,23.9560547 C41.9326172,24.375 42.0087891,24.7558594 42.0087891,25.0986328 C42.0087891,25.6318359 41.84375,26.0539551 41.5136719,26.3649902 C41.1835938,26.6760254 40.7392578,26.831543 40.1806641,26.831543 C39.6474609,26.831543 39.2253418,26.7109375 38.9143066,26.4697266 C38.6421509,26.258667 38.4161644,25.9261093 38.2363472,25.4720535 L36.0102539,19.2905273 L25.574707,19.2905273 L23.4228516,25.2700195 C23.2324219,25.8286133 22.9848633,26.2285156 22.6801758,26.4697266 C22.3754883,26.7109375 21.9501953,26.831543 21.4042969,26.831543 C20.8583984,26.831543 20.4267578,26.6791992 20.109375,26.3745117 C19.7919922,26.0698242 19.6333008,25.6572266 19.6333008,25.1367188 C19.6333008,24.8726563 19.6779883,24.5801563 19.7673633,24.2592188 L19.8427734,24.0131836 L28.0883789,1.96142578 C28.5581055,0.653808594 29.4658203,0 30.8115234,0 Z M30.8686523,4.34179688 L30.7353516,4.34179688 L26.5458984,16.2436523 L35.0581055,16.2436523 L30.8686523,4.34179688 Z" />
    <path d="M8.26464844,7.40771484 C8.88671875,7.40771484 9.41040039,7.56640625 9.83569336,7.88378906 C10.2078247,8.16149902 10.5046272,8.56070709 10.7261009,9.08141327 L10.8164062,9.31201172 L16.3388672,24.0322266 C16.4150391,24.2480469 16.4753418,24.4511719 16.5197754,24.6416016 C16.564209,24.8320312 16.5864258,25.0288086 16.5864258,25.2319336 C16.5864258,25.6889648 16.4309082,26.0603027 16.119873,26.3459473 C15.8088379,26.6315918 15.4057617,26.7744141 14.9106445,26.7744141 C14.4663086,26.7744141 14.107666,26.6665039 13.8347168,26.4506836 C13.5958862,26.2618408 13.398365,25.9563599 13.2421532,25.5342407 L13.1777344,25.3461914 L11.7875977,21.2138672 L4.77978516,21.2138672 L3.37060547,25.3271484 C3.21826172,25.8476562 3.00561523,26.2189941 2.73266602,26.4411621 C2.4597168,26.6633301 2.11376953,26.7744141 1.69482422,26.7744141 C1.17431641,26.7744141 0.76171875,26.6347656 0.45703125,26.3554688 C0.15234375,26.0761719 0,25.7016602 0,25.2319336 C0,25.0415039 0.0190429688,24.8415527 0.0571289062,24.6320801 C0.0825195312,24.4924316 0.116373698,24.357015 0.158691406,24.2258301 L0.228515625,24.0322266 L5.75097656,9.31201172 C5.9921875,8.65185547 6.32226562,8.16943359 6.74121094,7.86474609 C7.16015625,7.56005859 7.66796875,7.40771484 8.26464844,7.40771484 Z M8.47412109,11.1210938 L8.05517578,11.1210938 L5.61767578,18.6430664 L10.949707,18.6430664 L8.47412109,11.1210938 Z" />
  </g>
</svg>
