<svg version="1.1" viewBox="0 0 25 37" xmlns:xlink="http://www.w3.org/1999/xlink" xmlns="http://www.w3.org/2000/svg">
  <g class="icon-solid" fill="#000000" fill-rule="nonzero" stroke="none" stroke-width="1" transform="translate(-219.000000, -168.000000)">
    <path d="M240.431152,204.189453 C241.624512,204.189453 242.513184,203.884766 243.097168,203.275391 C243.681152,202.666016 243.973145,201.720215 243.973145,200.437988 L243.973145,187.10791 C243.973145,185.825684 243.681152,184.879883 243.097168,184.270508 C242.638323,183.791713 241.99138,183.501016 241.15634,183.398418 L241.04,183.388 L241.040527,178.900391 C241.040527,177.199219 240.783447,175.713867 240.269287,174.444336 C239.755127,173.174805 239.060059,172.121094 238.184082,171.283203 C237.308105,170.445312 236.317871,169.820068 235.213379,169.407471 C234.108887,168.994873 232.966309,168.788574 231.785645,168.788574 C230.592285,168.788574 229.443359,168.994873 228.338867,169.407471 C227.234375,169.820068 226.247314,170.445312 225.377686,171.283203 C224.508057,172.121094 223.816162,173.174805 223.302002,174.444336 C222.787842,175.713867 222.530762,177.199219 222.530762,178.900391 L222.53,183.466 L222.433519,183.480168 C221.714168,183.608624 221.11499,183.881592 220.635986,184.299072 C219.944092,184.9021 219.598145,185.838379 219.598145,187.10791 L219.598145,200.437988 C219.598145,201.720215 219.893311,202.666016 220.483643,203.275391 C221.073975,203.884766 221.959473,204.189453 223.140137,204.189453 L240.431152,204.189453 Z M225.691,183.39 L225.691895,178.538574 C225.691895,177.078613 225.971191,175.850342 226.529785,174.85376 C227.088379,173.857178 227.831055,173.10498 228.757813,172.597168 C229.68457,172.089355 230.693848,171.835449 231.785645,171.835449 C232.890137,171.835449 233.899414,172.089355 234.813477,172.597168 C235.727539,173.10498 236.463867,173.857178 237.022461,174.85376 C237.581055,175.850342 237.860352,177.078613 237.860352,178.538574 L237.86,183.363 L225.691,183.39 Z" />
  </g>
</svg>
