<svg version="1.1" viewBox="0 0 33 40" xmlns:xlink="http://www.w3.org/1999/xlink" xmlns="http://www.w3.org/2000/svg">
  <g class="icon-solid" fill="#000000" fill-rule="nonzero" stroke="none" stroke-width="1" transform="translate(-215.000000, -211.000000)">
    <path d="M231.233398,250.322754 C233.455078,250.322754 235.533936,249.906982 237.469971,249.075439 C239.406006,248.243896 241.107178,247.094971 242.573486,245.628662 C244.039795,244.162354 245.185547,242.461182 246.010742,240.525146 C246.835938,238.589111 247.248535,236.510254 247.248535,234.288574 C247.248535,233.793457 247.093018,233.390381 246.781982,233.079346 C246.470947,232.768311 246.067871,232.612793 245.572754,232.612793 C245.103027,232.612793 244.725342,232.768311 244.439697,233.079346 C244.154053,233.390381 244.01123,233.793457 244.01123,234.288574 C244.01123,236.065918 243.681152,237.729004 243.020996,239.277832 C242.36084,240.82666 241.446777,242.185059 240.278809,243.353027 C239.11084,244.520996 237.755615,245.431885 236.213135,246.085693 C234.670654,246.739502 233.010742,247.066406 231.233398,247.066406 C229.46875,247.066406 227.812012,246.739502 226.263184,246.085693 C224.714355,245.431885 223.355957,244.520996 222.187988,243.353027 C221.02002,242.185059 220.109131,240.82666 219.455322,239.277832 C218.801514,237.729004 218.474609,236.065918 218.474609,234.288574 C218.474609,232.51123 218.79834,230.848145 219.445801,229.299316 C220.093262,227.750488 221.000977,226.39209 222.168945,225.224121 C223.336914,224.056152 224.692139,223.14209 226.234619,222.481934 C227.7771,221.821777 229.430664,221.491699 231.195312,221.491699 C231.830078,221.491699 232.439453,221.51709 233.023438,221.567871 C233.607422,221.618652 234.146973,221.701172 234.64209,221.81543 L229.519531,226.899902 C229.379883,227.064941 229.268799,227.239502 229.186279,227.423584 C229.10376,227.607666 229.0625,227.807617 229.0625,228.023438 C229.0625,228.467773 229.214844,228.845459 229.519531,229.156494 C229.824219,229.467529 230.19873,229.623047 230.643066,229.623047 C231.125488,229.623047 231.506348,229.470703 231.785645,229.166016 L239.193359,221.720215 C239.536133,221.364746 239.70752,220.964844 239.70752,220.520508 C239.70752,220.050781 239.536133,219.650879 239.193359,219.320801 L231.785645,211.798828 C231.493652,211.46875 231.112793,211.303711 230.643066,211.303711 C230.19873,211.303711 229.824219,211.465576 229.519531,211.789307 C229.214844,212.113037 229.0625,212.49707 229.0625,212.941406 C229.0625,213.157227 229.10376,213.360352 229.186279,213.550781 C229.268799,213.741211 229.379883,213.918945 229.519531,214.083984 L234.051758,218.578125 C233.632812,218.489258 233.182129,218.419434 232.699707,218.368652 C232.217285,218.317871 231.71582,218.29248 231.195312,218.29248 C228.986328,218.29248 226.913818,218.705078 224.977783,219.530273 C223.041748,220.355469 221.34375,221.498047 219.883789,222.958008 C218.423828,224.417969 217.28125,226.115967 216.456055,228.052002 C215.630859,229.988037 215.218262,232.066895 215.218262,234.288574 C215.218262,236.510254 215.634033,238.589111 216.465576,240.525146 C217.297119,242.461182 218.442871,244.162354 219.902832,245.628662 C221.362793,247.094971 223.060791,248.243896 224.996826,249.075439 C226.932861,249.906982 229.011719,250.322754 231.233398,250.322754 Z" />
  </g>
</svg>
